<?xml version="1.0" standalone="no"?>
<!DOCTYPE svg PUBLIC "-//W3C//DTD SVG 20010904//EN"
 "http://www.w3.org/TR/2001/REC-SVG-20010904/DTD/svg10.dtd">
<svg version="1.0" xmlns="http://www.w3.org/2000/svg"
 width="986.000000pt" height="980.000000pt" viewBox="0 0 986.000000 980.000000"
 preserveAspectRatio="xMidYMid meet">

<g transform="translate(0.000000,980.000000) scale(0.100000,-0.100000)"
fill="#000000" stroke="none">
<path d="M4280 7959 c-737 -49 -1367 -350 -1868 -894 -314 -341 -548 -785
-646 -1227 -57 -256 -69 -366 -69 -628 -1 -279 16 -420 79 -671 153 -608 547
-1187 1060 -1557 175 -126 458 -277 659 -350 139 -50 354 -105 515 -132 156
-25 411 -43 510 -35 194 15 326 27 337 30 8 3 -13 45 -55 116 l-68 112 -275 2
c-298 2 -379 11 -609 67 -697 170 -1310 652 -1623 1275 -193 383 -279 735
-279 1143 -1 343 63 659 198 988 74 180 198 389 329 557 85 109 298 324 405
409 306 242 678 419 1032 490 220 44 292 51 548 50 274 0 380 -14 641 -79 157
-40 175 -41 209 -18 22 16 23 16 17 -1 -5 -13 -3 -16 11 -12 9 3 115 6 234 8
l217 3 -47 27 c-26 15 -53 26 -60 23 -7 -3 -11 -1 -8 4 5 8 -148 81 -171 81
-7 0 -13 5 -13 11 0 6 -7 8 -16 5 -10 -4 -13 -2 -8 6 5 8 2 9 -9 5 -10 -3 -17
-3 -17 2 0 5 -8 11 -17 14 -10 3 -58 20 -106 37 -310 109 -698 161 -1037 139z
m1080 -277 c0 -5 -7 -17 -15 -28 -14 -18 -14 -17 -4 9 12 27 19 34 19 19z
m244 -31 c4 -5 -3 -7 -14 -4 -23 6 -26 13 -6 13 8 0 17 -4 20 -9z m121 -21 c3
-5 -1 -10 -10 -10 -9 0 -13 5 -10 10 3 6 8 10 10 10 2 0 7 -4 10 -10z"/>
<path d="M4333 7348 l2 -243 108 -3 107 -3 0 246 0 245 -109 0 -109 0 1 -242z"/>
<path d="M5300 7570 c0 -5 5 -10 11 -10 5 0 7 5 4 10 -3 6 -8 10 -11 10 -2 0
-4 -4 -4 -10z"/>
<path d="M5815 7570 c-3 -6 1 -7 9 -4 18 7 21 14 7 14 -6 0 -13 -4 -16 -10z"/>
<path d="M5370 7540 c8 -5 20 -10 25 -10 6 0 3 5 -5 10 -8 5 -19 10 -25 10 -5
0 -3 -5 5 -10z"/>
<path d="M5420 7520 c8 -5 20 -10 25 -10 6 0 3 5 -5 10 -8 5 -19 10 -25 10 -5
0 -3 -5 5 -10z"/>
<path d="M2760 6895 l-75 -75 170 -170 c93 -94 173 -170 178 -170 10 0 147
137 147 147 0 9 -332 343 -340 343 -3 0 -39 -34 -80 -75z"/>
<path d="M5872 6797 l-172 -172 73 -73 c40 -39 77 -72 82 -72 6 0 87 76 180
170 l170 170 -75 75 c-41 41 -77 75 -80 75 -3 0 -83 -78 -178 -173z"/>
<path d="M6981 6174 c0 -11 3 -14 6 -6 3 7 2 16 -1 19 -3 4 -6 -2 -5 -13z"/>
<path d="M2890 6141 c0 -6 23 -59 50 -118 l51 -108 517 -288 c284 -158 542
-302 573 -320 l57 -32 4 -76 c6 -99 34 -152 117 -222 l31 -26 -24 -78 c-13
-43 -72 -240 -131 -438 -58 -198 -131 -442 -161 -542 -31 -101 -53 -187 -50
-192 3 -4 26 -14 52 -21 37 -11 47 -11 54 0 4 7 52 159 105 339 176 592 246
826 256 857 9 30 12 32 74 36 147 12 260 123 280 274 l7 50 137 58 c75 32 182
76 238 99 56 23 99 45 97 49 -3 4 2 5 10 2 9 -3 16 -2 16 3 0 5 8 9 18 10 9 1
34 7 55 15 41 14 51 39 13 32 -14 -2 -31 3 -40 12 -14 13 -16 14 -16 0 0 -12
-21 -15 -124 -18 -106 -3 -123 -1 -118 12 5 13 3 13 -11 1 -9 -7 -17 -9 -17
-3 0 5 7 15 16 23 14 11 14 13 -1 22 -9 5 -19 6 -22 3 -4 -3 -1 -6 5 -6 19 0
14 -14 -9 -28 -25 -16 -83 -28 -59 -13 8 5 17 8 21 5 4 -2 12 3 19 11 16 19 9
19 -34 -2 -19 -9 -32 -21 -29 -26 4 -6 -1 -8 -11 -4 -12 5 -52 -11 -117 -45
l-98 -53 -33 34 c-44 46 -130 84 -200 89 -70 5 -143 -18 -204 -64 -24 -19 -46
-34 -49 -34 -4 0 -198 132 -405 275 -295 204 -579 401 -613 426 -39 28 -43 29
-169 29 -73 0 -128 -4 -128 -9z m1621 -824 c19 -13 40 -39 48 -61 13 -33 13
-44 0 -79 -46 -134 -239 -103 -239 38 0 101 107 159 191 102z"/>
<path d="M5880 6010 c-9 -6 -10 -10 -3 -10 6 0 15 5 18 10 8 12 4 12 -15 0z"/>
<path d="M5890 5990 c-9 -6 -10 -10 -3 -10 6 0 15 5 18 10 8 12 4 12 -15 0z"/>
<path d="M5821 5980 c-9 -5 -4 -7 13 -7 29 0 32 2 13 10 -8 3 -20 2 -26 -3z"/>
<path d="M5730 5930 c-13 -9 -13 -10 0 -10 11 -1 10 -4 -4 -15 -16 -12 -17
-15 -4 -15 8 0 21 7 28 15 10 12 10 15 -1 15 -11 0 -11 2 1 10 8 5 11 10 5 10
-5 0 -17 -5 -25 -10z"/>
<path d="M5643 5893 c-18 -7 -16 -23 3 -23 8 0 13 4 10 9 -4 5 0 12 6 14 7 3
9 5 3 5 -5 0 -16 -2 -22 -5z"/>
<path d="M5550 5840 c-13 -9 -13 -10 0 -10 13 0 13 -1 0 -10 -8 -5 -10 -10 -5
-10 19 0 34 16 27 27 -5 8 -13 9 -22 3z"/>
<path d="M5515 5819 c-4 -6 -5 -12 -2 -15 2 -3 7 2 10 11 7 17 1 20 -8 4z"/>
<path d="M5461 5790 c-17 -15 -19 -20 -7 -20 8 0 20 9 26 20 13 25 11 25 -19
0z"/>
<path d="M5410 5766 c0 -2 7 -7 16 -10 8 -3 12 -2 9 4 -6 10 -25 14 -25 6z"/>
<path d="M5394 5752 c3 -6 1 -12 -6 -15 -7 -2 -2 -2 10 0 15 2 21 0 17 -7 -3
-5 -1 -10 4 -10 19 0 12 19 -10 31 -13 6 -19 7 -15 1z"/>
<path d="M5460 5750 c0 -5 4 -10 9 -10 6 0 13 5 16 10 3 6 -1 10 -9 10 -9 0
-16 -4 -16 -10z"/>
<path d="M5290 5704 c-36 -19 -67 -39 -68 -45 -2 -5 11 -1 30 11 37 22 62 28
33 7 -17 -13 -15 -14 15 -21 18 -3 35 -4 38 -1 3 3 -2 5 -11 5 -12 0 -17 8
-17 26 0 23 3 26 28 20 15 -3 21 -3 14 0 -10 5 -10 9 -1 20 15 19 14 18 -61
-22z"/>
<path d="M5790 5710 c8 -5 20 -10 25 -10 6 0 3 5 -5 10 -8 5 -19 10 -25 10 -5
0 -3 -5 5 -10z"/>
<path d="M5768 5693 c7 -3 16 -2 19 1 4 3 -2 6 -13 5 -11 0 -14 -3 -6 -6z"/>
<path d="M5765 5670 c-13 -6 -15 -9 -5 -9 8 0 22 4 30 9 18 12 2 12 -25 0z"/>
<path d="M5680 5634 c-52 -27 -48 -31 10 -8 22 9 40 20 40 25 0 5 -1 8 -2 8
-2 -1 -23 -12 -48 -25z"/>
<path d="M5126 5617 c-30 -14 -36 -21 -25 -28 12 -7 12 -9 0 -9 -8 0 -12 -3
-8 -6 3 -3 14 -1 24 5 11 6 13 11 5 11 -21 0 -3 20 18 20 10 0 22 5 25 11 11
17 2 16 -39 -4z"/>
<path d="M5440 5630 c0 -5 4 -10 9 -10 6 0 13 5 16 10 3 6 -1 10 -9 10 -9 0
-16 -4 -16 -10z"/>
<path d="M5597 5629 c7 -7 15 -10 18 -7 3 3 -2 9 -12 12 -14 6 -15 5 -6 -5z"/>
<path d="M5560 5620 c20 -13 33 -13 25 0 -3 6 -14 10 -23 10 -15 0 -15 -2 -2
-10z"/>
<path d="M5185 5610 c-3 -5 -1 -10 4 -10 6 0 11 5 11 10 0 6 -2 10 -4 10 -3 0
-8 -4 -11 -10z"/>
<path d="M5515 5590 c3 -5 8 -10 11 -10 2 0 4 5 4 10 0 6 -5 10 -11 10 -5 0
-7 -4 -4 -10z"/>
<path d="M5046 5577 c-16 -12 -16 -13 3 -13 11 0 18 3 15 7 -2 4 2 10 8 12 7
3 8 6 2 6 -5 1 -18 -5 -28 -12z"/>
<path d="M5555 5580 c-3 -6 1 -7 9 -4 18 7 21 14 7 14 -6 0 -13 -4 -16 -10z"/>
<path d="M5395 5550 c11 -5 27 -9 35 -9 9 0 8 4 -5 9 -11 5 -27 9 -35 9 -9 0
-8 -4 5 -9z"/>
<path d="M5350 5535 c-10 -12 -10 -15 2 -15 8 0 15 7 15 15 0 8 -1 15 -2 15
-2 0 -8 -7 -15 -15z"/>
<path d="M5456 5541 c-4 -5 3 -7 14 -4 23 6 26 13 6 13 -8 0 -17 -4 -20 -9z"/>
<path d="M5098 5523 c7 -3 16 -2 19 1 4 3 -2 6 -13 5 -11 0 -14 -3 -6 -6z"/>
<path d="M2060 5215 l0 -105 250 0 250 0 0 105 0 105 -250 0 -250 0 0 -105z"/>
<path d="M5828 5213 c6 -2 18 -2 25 0 6 3 1 5 -13 5 -14 0 -19 -2 -12 -5z"/>
<path d="M5758 5183 c6 -2 10 -8 7 -13 -3 -4 5 -6 17 -2 21 5 21 6 2 13 -10 4
-23 8 -29 8 -5 -1 -4 -3 3 -6z"/>
<path d="M5818 5183 c7 -3 16 -2 19 1 4 3 -2 6 -13 5 -11 0 -14 -3 -6 -6z"/>
<path d="M7107 5127 c-14 -24 -27 -50 -29 -58 -2 -8 -7 -17 -13 -21 -7 -5 28
-27 55 -32 7 -2 97 -55 154 -90 27 -17 55 -30 63 -28 7 2 12 -1 11 -6 -4 -12
59 -65 70 -58 4 2 14 0 22 -6 12 -8 11 -9 -4 -4 -16 5 -17 4 -7 -8 7 -8 20
-15 29 -15 9 -1 45 -4 78 -7 51 -5 62 -3 68 11 3 9 3 22 -1 28 -3 7 3 3 15 -7
26 -22 28 -28 7 -20 -8 4 -15 2 -15 -4 0 -16 24 -21 37 -7 9 10 -4 27 -63 80
-46 41 -79 64 -86 59 -7 -4 -10 -3 -5 1 9 10 -21 45 -39 45 -7 0 -14 4 -16 8
-7 18 -129 93 -141 86 -6 -4 -9 -4 -5 1 5 5 -2 14 -15 21 -35 20 -139 74 -142
74 -2 0 -15 -19 -28 -43z m187 -83 c3 -8 2 -12 -4 -9 -6 3 -10 10 -10 16 0 14
7 11 14 -7z m56 -10 c0 -2 -9 0 -20 6 -11 6 -20 13 -20 16 0 2 9 0 20 -6 11
-6 20 -13 20 -16z m45 -26 c3 -3 -13 -4 -35 -3 -22 1 -43 5 -46 8 -3 3 13 4
35 3 22 -1 43 -4 46 -8z m-119 -20 c4 -7 3 -8 -4 -4 -6 4 -21 2 -33 -4 -16 -9
-24 -9 -33 1 -8 9 -8 10 1 5 7 -4 21 -2 30 3 23 14 30 13 39 -1z m195 -35 c13
-16 12 -17 -3 -4 -10 7 -18 15 -18 17 0 8 8 3 21 -13z m89 -97 c0 -2 -9 -6
-20 -9 -11 -3 -18 -1 -14 4 5 9 34 13 34 5z m-47 -43 c-6 -16 -11 -16 -28 1
-12 12 -11 14 9 12 14 0 22 -6 19 -13z"/>
<path d="M5878 5143 c7 -3 16 -2 19 1 4 3 -2 6 -13 5 -11 0 -14 -3 -6 -6z"/>
<path d="M6798 5133 c7 -3 16 -2 19 1 4 3 -2 6 -13 5 -11 0 -14 -3 -6 -6z"/>
<path d="M5630 5126 c0 -2 7 -7 16 -10 8 -3 12 -2 9 4 -6 10 -25 14 -25 6z"/>
<path d="M5880 5120 c-18 -12 -2 -12 25 0 13 6 15 9 5 9 -8 0 -22 -4 -30 -9z"/>
<path d="M5875 5090 c-8 -13 5 -13 25 0 13 8 13 10 -2 10 -9 0 -20 -4 -23 -10z"/>
<path d="M5718 5063 c7 -3 16 -2 19 1 4 3 -2 6 -13 5 -11 0 -14 -3 -6 -6z"/>
<path d="M5756 5062 c-9 -15 23 -24 42 -11 15 9 15 10 -2 4 -11 -3 -23 -1 -26
6 -5 7 -10 8 -14 1z"/>
<path d="M5700 5045 c14 -8 34 -14 45 -14 11 0 2 6 -20 14 -50 18 -57 18 -25
0z"/>
<path d="M5430 5015 c-11 -13 -10 -14 4 -9 9 3 16 10 16 15 0 13 -6 11 -20 -6z"/>
<path d="M5490 5026 c0 -2 7 -7 16 -10 8 -3 12 -2 9 4 -6 10 -25 14 -25 6z"/>
<path d="M5695 5010 c-3 -6 1 -7 9 -4 18 7 21 14 7 14 -6 0 -13 -4 -16 -10z"/>
<path d="M5375 4974 c-16 -14 -29 -29 -28 -34 2 -5 -4 -7 -13 -3 -13 5 -15 2
-9 -15 4 -14 2 -22 -5 -22 -6 0 -8 5 -5 10 3 6 2 10 -3 10 -12 0 -33 -25 -27
-32 3 -2 -1 -5 -9 -5 -39 0 -235 -217 -331 -367 -78 -122 -160 -303 -199 -440
-241 -829 151 -1704 927 -2071 380 -180 776 -216 1200 -109 323 81 651 291
877 561 79 95 159 208 160 228 1 6 7 17 15 25 26 30 58 105 60 143 2 20 8 44
15 52 10 12 9 15 -4 15 -9 0 -16 5 -16 12 0 26 -36 87 -48 83 -9 -3 -12 2 -8
18 7 23 -7 -2 -64 -125 -19 -42 -29 -72 -22 -66 7 6 15 8 19 4 3 -3 1 -6 -5
-6 -7 0 -12 -10 -12 -22 0 -18 -2 -20 -10 -8 -11 17 -9 18 -44 -44 -21 -39
-24 -51 -14 -59 10 -7 9 -8 -2 -4 -9 3 -28 -13 -50 -41 -164 -212 -320 -350
-525 -466 -164 -92 -335 -152 -535 -187 -126 -22 -394 -18 -528 9 -292 59
-529 175 -761 374 -159 137 -282 300 -381 503 -100 205 -147 393 -157 621 -19
460 147 875 486 1214 57 57 92 96 76 86 -25 -16 -27 -17 -22 -2 4 10 3 15 -3
11 -6 -4 -9 -14 -8 -23 5 -28 -26 -19 -36 11 -8 21 -7 30 2 36 7 4 12 12 10
18 -2 5 11 26 27 47 17 21 30 41 30 44 0 4 4 13 9 20 14 23 2 21 -29 -4z m-55
-179 c0 -8 -4 -15 -10 -15 -5 0 -10 7 -10 15 0 8 5 15 10 15 6 0 10 -7 10 -15z
m2590 -1823 c0 -5 -7 -17 -15 -28 -14 -18 -14 -17 -4 9 12 27 19 34 19 19z
m-6 -98 c3 -8 2 -12 -4 -9 -6 3 -10 10 -10 16 0 14 7 11 14 -7z m56 -81 c-11
-17 -11 -17 -6 0 3 10 6 24 7 30 0 9 2 9 5 0 3 -7 0 -20 -6 -30z m-24 -9 c-5
-18 -3 -24 5 -19 8 6 8 2 0 -14 -15 -27 -17 -27 -15 7 3 46 4 52 10 52 3 0 3
-12 0 -26z m-112 7 c3 -5 -1 -11 -9 -14 -9 -4 -12 -1 -8 9 6 16 10 17 17 5z
m8 -48 c-3 -16 -7 -22 -10 -15 -4 13 4 42 11 42 2 0 2 -12 -1 -27z"/>
<path d="M5524 4908 l-19 -23 23 19 c12 11 22 21 22 23 0 8 -8 2 -26 -19z"/>
<path d="M5456 4883 c21 -16 31 -16 39 -3 4 6 -1 7 -11 3 -10 -4 -15 -2 -11 3
3 5 -3 10 -14 10 -19 0 -19 -1 -3 -13z"/>
<path d="M5439 4843 c-13 -16 -12 -17 4 -4 9 7 17 15 17 17 0 8 -8 3 -21 -13z"/>
<path d="M6310 4791 c0 -5 -13 -8 -30 -6 l-30 4 0 -168 0 -167 -54 -24 c-30
-13 -53 -27 -51 -31 3 -4 -3 -6 -13 -5 -9 0 -16 -5 -14 -12 1 -8 -2 -11 -8 -7
-5 3 -34 -17 -64 -45 -70 -66 -132 -187 -145 -282 -36 -260 119 -458 462 -593
110 -43 160 -69 202 -107 114 -99 91 -268 -45 -336 -48 -24 -66 -27 -145 -26
-136 1 -280 46 -402 125 l-32 20 -16 -58 c-9 -32 -30 -102 -47 -156 -23 -77
-27 -101 -18 -113 35 -41 199 -99 367 -130 22 -4 23 -8 25 -162 l3 -157 165 0
165 0 5 174 5 174 65 26 c170 69 287 207 320 379 16 79 3 239 -21 269 -6 6
-12 24 -15 39 -7 36 -13 46 -26 38 -7 -4 -8 -2 -4 4 11 18 -23 62 -42 55 -14
-4 -14 -3 -3 5 12 9 12 13 -2 27 -9 9 -22 13 -28 9 -8 -4 -9 -3 -5 5 17 27
-135 125 -314 201 -114 48 -205 99 -221 123 -4 5 -12 6 -19 2 -8 -5 -11 -4 -7
2 4 6 0 27 -8 47 -23 54 -19 103 13 153 37 59 89 83 195 90 45 3 89 9 97 14 9
5 3 6 -17 3 -52 -10 -100 3 -107 29 -3 12 -14 32 -26 44 -12 14 -20 36 -20 58
0 20 -4 34 -8 31 -5 -3 -9 1 -9 9 0 8 4 15 9 15 4 0 8 -4 8 -10 0 -18 18 -10
49 21 26 26 31 38 31 80 0 46 2 49 25 49 23 0 25 4 25 40 0 57 27 55 33 -2 2
-24 4 17 5 90 l2 132 -87 2 c-49 1 -101 2 -118 3 -16 0 -36 4 -42 8 -7 5 -13
4 -13 -2z m-43 -243 c-2 -13 -4 -5 -4 17 -1 22 1 32 4 23 2 -10 2 -28 0 -40z
m23 -38 c0 -5 -2 -10 -4 -10 -3 0 -8 5 -11 10 -3 6 -1 10 4 10 6 0 11 -4 11
-10z m77 -112 c-3 -8 -6 -5 -6 6 -1 11 2 17 5 13 3 -3 4 -12 1 -19z m534 -915
c13 -16 12 -17 -3 -4 -10 7 -18 15 -18 17 0 8 8 3 21 -13z"/>
<path d="M7489 4767 c34 -36 56 -52 31 -22 -6 8 -8 20 -4 26 5 8 3 9 -5 5 -7
-5 -22 0 -34 10 -12 10 -6 2 12 -19z"/>
<path d="M6582 4655 c-1 -86 -6 -135 -14 -143 -9 -9 -9 -12 3 -12 12 0 12 -2
-1 -10 -12 -8 -12 -10 5 -10 19 0 20 6 17 102 -4 180 -8 207 -10 73z"/>
<path d="M7560 4704 c0 -6 8 -18 18 -27 16 -15 18 -15 18 3 0 10 -4 16 -9 13
-5 -3 -13 1 -18 8 -5 8 -9 9 -9 3z"/>
<path d="M6610 4482 c0 -7 -10 -12 -23 -12 -16 0 -23 -6 -23 -20 0 -11 4 -20
8 -20 4 0 8 7 8 15 0 8 6 15 14 15 17 0 31 18 22 27 -3 4 -6 1 -6 -5z"/>
<path d="M6655 4470 c11 -5 27 -9 35 -9 9 0 8 4 -5 9 -11 5 -27 9 -35 9 -9 0
-8 -4 5 -9z"/>
<path d="M6630 4450 c-10 -6 -11 -10 -2 -10 6 0 12 -7 12 -16 0 -13 3 -14 13
-5 8 6 16 9 19 6 2 -3 5 2 5 10 0 11 -6 13 -20 9 -13 -4 -17 -2 -13 5 9 13 6
14 -14 1z"/>
<path d="M6827 4399 c7 -7 15 -10 18 -7 3 3 -2 9 -12 12 -14 6 -15 5 -6 -5z"/>
<path d="M6445 4270 c3 -5 10 -10 16 -10 5 0 9 5 9 10 0 6 -7 10 -16 10 -8 0
-12 -4 -9 -10z"/>
<path d="M6480 4245 c0 -24 5 -35 15 -35 10 0 15 11 15 35 0 24 -5 35 -15 35
-10 0 -15 -11 -15 -35z"/>
<path d="M6708 4143 c7 -3 16 -2 19 1 4 3 -2 6 -13 5 -11 0 -14 -3 -6 -6z"/>
<path d="M6820 4090 c0 -5 5 -10 11 -10 5 0 7 5 4 10 -3 6 -8 10 -11 10 -2 0
-4 -4 -4 -10z"/>
<path d="M2860 3785 l-175 -175 78 -77 77 -78 170 170 c93 93 170 174 170 180
0 6 -33 43 -73 83 l-72 72 -175 -175z"/>
<path d="M4337 3323 c-4 -3 -7 -114 -7 -245 l0 -238 110 0 110 0 0 245 0 245
-103 0 c-57 0 -107 -3 -110 -7z"/>
<path d="M7991 3314 c0 -11 3 -14 6 -6 3 7 2 16 -1 19 -3 4 -6 -2 -5 -13z"/>
<path d="M7980 3275 c0 -5 5 -17 10 -25 5 -8 10 -10 10 -5 0 6 -5 17 -10 25
-5 8 -10 11 -10 5z"/>
<path d="M7937 3075 c3 -8 9 -12 14 -9 12 7 11 11 -5 17 -10 4 -13 1 -9 -8z"/>
<path d="M8021 2995 c1 -19 18 -51 18 -35 0 8 -4 22 -9 30 -5 8 -9 11 -9 5z"/>
<path d="M8006 2883 c-6 -14 -5 -15 5 -6 7 7 10 15 7 18 -3 3 -9 -2 -12 -12z"/>
</g>
</svg>
